<svg xmlns="http://www.w3.org/2000/svg" viewBox="0 0 360 210" role="img" aria-labelledby="title desc">
  <title id="title">Generic sedan silhouette</title>
  <desc id="desc">A simple gray sedan placeholder for a vehicle without a photo.</desc>
  <path d="M57 145c0-13 9-24 22-27l31-6 27-32c8-10 20-15 33-15h40c16 0 29 7 38 19l22 29 20 5c11 3 18 12 18 23v11H57Z" fill="#b9bdbb" stroke="#777d7a" stroke-width="5" stroke-linejoin="round"/>
  <path d="m143 87-20 25h50V79h-4c-10 0-19 3-26 8Zm43-8v33h67l-17-22c-6-7-14-11-25-11Z" fill="#e2e4e3"/>
  <path d="M179 79v33" stroke="#939896" stroke-width="4" stroke-linecap="round"/>
  <circle cx="113" cy="151" r="21" fill="#737976"/>
  <circle cx="259" cy="151" r="21" fill="#737976"/>
  <circle cx="113" cy="151" r="9" fill="#cfd2d0"/>
  <circle cx="259" cy="151" r="9" fill="#cfd2d0"/>
</svg>
