<svg width="1200" height="420" viewBox="0 0 1200 420" fill="none" xmlns="http://www.w3.org/2000/svg">
  <rect width="1200" height="420" rx="36" fill="#F5F8FF"/>
  <rect x="26" y="26" width="1148" height="368" rx="28" fill="url(#paint0_linear)"/>
  <circle cx="1011" cy="94" r="132" fill="#FFF2D8" fill-opacity="0.9"/>
  <circle cx="150" cy="342" r="144" fill="#D6F5EC" fill-opacity="0.85"/>
  <path d="M88 289C190 223 287 193 379 197C492 201 575 297 690 299C790 301 891 249 994 205C1049 181 1096 165 1134 158" stroke="#D8E4FF" stroke-width="20" stroke-linecap="round"/>
  <path d="M127 264C230 205 312 183 395 186C510 190 596 286 708 287C808 288 911 236 1011 194" stroke="#ADC7FF" stroke-width="8" stroke-linecap="round" stroke-dasharray="3 22"/>
  <rect x="86" y="119" width="114" height="62" rx="22" fill="#FFF9EC"/>
  <path d="M109 171C115 147 127 135 151 135H172C184 135 194 145 194 157V171H109Z" fill="#6FA8FF"/>
  <rect x="119" y="118" width="41" height="27" rx="10" fill="#FFC65A"/>
  <circle cx="129" cy="180" r="10" fill="#21304E"/>
  <circle cx="175" cy="180" r="10" fill="#21304E"/>
  <path d="M190 265C227 245 266 226 330 226C381 226 429 241 481 262" stroke="#21304E" stroke-width="10" stroke-linecap="round"/>
  <path d="M831 255C849 227 879 213 916 213H986C1018 213 1047 235 1057 265H831Z" fill="#21304E"/>
  <path d="M869 206C878 183 899 170 924 170H962C985 170 1004 186 1008 209H869V206Z" fill="#6FA8FF"/>
  <circle cx="878" cy="271" r="24" fill="#FFF9EC" stroke="#21304E" stroke-width="10"/>
  <circle cx="1014" cy="271" r="24" fill="#FFF9EC" stroke="#21304E" stroke-width="10"/>
  <path d="M794 284H1079" stroke="#21304E" stroke-width="10" stroke-linecap="round"/>
  <text x="256" y="142" fill="#21304E" font-family="Avenir, Helvetica, Arial, sans-serif" font-size="56" font-weight="700">
    My Car Pal
  </text>
  <text x="256" y="198" fill="#46607F" font-family="Avenir, Helvetica, Arial, sans-serif" font-size="28" font-weight="500">
    Owner-first maintenance tracking for cars, trucks, motorcycles, and scooters
  </text>
  <text x="256" y="250" fill="#21304E" font-family="Avenir, Helvetica, Arial, sans-serif" font-size="22" font-weight="600">
    Privacy-forward records • Calm reminders • Household-ready organization
  </text>
  <g>
    <rect x="256" y="286" width="184" height="52" rx="18" fill="#21304E"/>
    <text x="292" y="319" fill="#FFF9EC" font-family="Avenir, Helvetica, Arial, sans-serif" font-size="22" font-weight="700">
      Free for 1 vehicle
    </text>
  </g>
  <g>
    <rect x="457" y="286" width="258" height="52" rx="18" fill="#FFF9EC"/>
    <text x="488" y="319" fill="#21304E" font-family="Avenir, Helvetica, Arial, sans-serif" font-size="22" font-weight="700">
      Bikes and scooters on paid plans
    </text>
  </g>
  <defs>
    <linearGradient id="paint0_linear" x1="72" y1="48" x2="1118" y2="386" gradientUnits="userSpaceOnUse">
      <stop stop-color="#FDFEFF"/>
      <stop offset="0.52" stop-color="#EEF4FF"/>
      <stop offset="1" stop-color="#FDF5E7"/>
    </linearGradient>
  </defs>
</svg>
